ffmpeg version 8.0.1 Copyright (c) 2000-2025 the FFmpeg developers
  built with Apple clang version 16.0.0 (clang-1600.0.26.6)
  configuration: --prefix=/opt/homebrew/Cellar/ffmpeg/8.0.1 --enable-shared --enable-pthreads --enable-version3 --cc=clang --host-cflags= --host-ldflags= --enable-ffplay --enable-gnutls --enable-gpl --enable-libaom --enable-libaribb24 --enable-libbluray --enable-libdav1d --enable-libharfbuzz --enable-libjxl --enable-libmp3lame --enable-libopus --enable-librav1e --enable-librist --enable-librubberband --enable-libsnappy --enable-libsrt --enable-libssh --enable-libsvtav1 --enable-libtesseract --enable-libtheora --enable-libvidstab --enable-libvmaf --enable-libvorbis --enable-libvpx --enable-libwebp --enable-libx264 --enable-libx265 --enable-libxml2 --enable-libxvid --enable-lzma --enable-libfontconfig --enable-libfreetype --enable-frei0r --enable-libass --enable-libopencore-amrnb --enable-libopencore-amrwb --enable-libopenjpeg --enable-libspeex --enable-libsoxr --enable-libzmq --enable-libzimg --disable-libjack --disable-indev=jack --enable-videotoolbox --enable-audiotoolbox --enable-neon
  libavutil      60.  8.100 / 60.  8.100
  libavcodec     62. 11.100 / 62. 11.100
  libavformat    62.  3.100 / 62.  3.100
  libavdevice    62.  1.100 / 62.  1.100
  libavfilter    11.  4.100 / 11.  4.100
  libswscale      9.  1.100 /  9.  1.100
  libswresample   6.  1.100 /  6.  1.100
Input #0, avfoundation, from '0':
  Duration: N/A, start: 569372.056640, bitrate: N/A
  Stream #0:0: Video: rawvideo (UYVY / 0x59565955), uyvy422, 1280x720, 29.97 tbr, 1000k tbn, start 569372.056640
Stream mapping:
  Stream #0:0 -> #0:0 (rawvideo (native) -> h264 (h264_videotoolbox))
Press [q] to stop, [?] for help
Output #0, null, to 'pipe:':
  Metadata:
    encoder         : Lavf62.3.100
  Stream #0:0: Video: h264, yuv420p(progressive), 1280x720, q=2-31, 10000 kb/s, 29.97 fps, 29.97 tbn
    Metadata:
      encoder         : Lavc62.11.100 h264_videotoolbox
[h264_videotoolbox @ 0xc1e22f480] Color range not set for yuv420p. Using MPEG range.
frame=   12 fps=0.0 q=-0.0 size=N/A time=00:00:00.36 bitrate=N/A speed=0.73x elapsed=0:00:00.50    frame=   28 fps= 28 q=-0.0 size=N/A time=00:00:00.90 bitrate=N/A speed=0.895x elapsed=0:00:01.00    frame=   58 fps= 29 q=-0.0 size=N/A time=00:00:01.90 bitrate=N/A speed=0.948x elapsed=0:00:02.00    frame=   73 fps= 29 q=-0.0 size=N/A time=00:00:02.40 bitrate=N/A speed=0.957x elapsed=0:00:02.50    frame=   88 fps= 29 q=-0.0 size=N/A time=00:00:02.90 bitrate=N/A speed=0.963x elapsed=0:00:03.01    frame=  103 fps= 29 q=-0.0 size=N/A time=00:00:03.40 bitrate=N/A speed=0.967x elapsed=0:00:03.51    frame=  133 fps= 29 q=-0.0 size=N/A time=00:00:04.40 bitrate=N/A speed=0.975x elapsed=0:00:04.51    frame=  148 fps= 29 q=-0.0 size=N/A time=00:00:04.90 bitrate=N/A speed=0.976x elapsed=0:00:05.02    frame=  164 fps= 30 q=-0.0 size=N/A time=00:00:05.43 bitrate=N/A speed=0.984x elapsed=0:00:05.52    frame=  179 fps= 30 q=-0.0 size=N/A time=00:00:05.93 bitrate=N/A speed=0.985x elapsed=0:00:06.03    frame=  194 fps= 30 q=-0.0 size=N/A time=00:00:06.43 bitrate=N/A speed=0.985x elapsed=0:00:06.53    frame=  209 fps= 30 q=-0.0 size=N/A time=00:00:06.94 bitrate=N/A speed=0.986x elapsed=0:00:07.03    frame=  223 fps= 30 q=-0.0 size=N/A time=00:00:07.40 bitrate=N/A speed=0.982x elapsed=0:00:07.54    frame=  239 fps= 30 q=-0.0 size=N/A time=00:00:07.94 bitrate=N/A speed=0.987x elapsed=0:00:08.04    frame=  254 fps= 30 q=-0.0 size=N/A time=00:00:08.44 bitrate=N/A speed=0.988x elapsed=0:00:08.54    frame=  269 fps= 30 q=-0.0 size=N/A time=00:00:08.94 bitrate=N/A speed=0.988x elapsed=0:00:09.04    frame=  284 fps= 30 q=-0.0 size=N/A time=00:00:09.44 bitrate=N/A speed=0.989x elapsed=0:00:09.55    [out#0/null @ 0xc1f2900c0] video:12214KiB audio:0KiB subtitle:0KiB other streams:0KiB global headers:0KiB muxing overhead: unknown
frame=  300 fps= 30 q=-0.0 Lsize=N/A time=00:00:09.97 bitrate=N/A speed=   1x elapsed=0:00:09.97    
